<svg xmlns="http://www.w3.org/2000/svg" xmlns:xlink="http://www.w3.org/1999/xlink" width="500" zoomAndPan="magnify" viewBox="0 0 375 374.999991" height="500" preserveAspectRatio="xMidYMid meet" version="1.0"><defs><g/><clipPath id="1488315593"><path d="M 24.917969 105 L 124 105 L 124 241 L 24.917969 241 Z M 24.917969 105 " clip-rule="nonzero"/></clipPath><clipPath id="1b3e695d93"><path d="M 134 88.105469 L 138.917969 88.105469 L 138.917969 281.605469 L 134 281.605469 Z M 134 88.105469 " clip-rule="nonzero"/></clipPath><clipPath id="4ac4426a5a"><path d="M 108 203.140625 L 150 203.140625 L 150 240.070312 L 108 240.070312 Z M 108 203.140625 " clip-rule="nonzero"/></clipPath><clipPath id="13fad3a8ce"><path d="M 109.914062 209.511719 C 106.546875 215.066406 108.917969 220.46875 111.902344 223.335938 L 129.347656 240.070312 L 146.421875 223.394531 C 149.195312 220.3125 150.261719 217.039062 149.667969 213.394531 C 148.851562 208.355469 144.699219 204.445312 139.566406 203.886719 C 136.421875 203.546875 133.382812 204.4375 131.007812 206.410156 C 130.371094 206.9375 129.796875 207.53125 129.300781 208.175781 C 128.710938 207.441406 128.019531 206.769531 127.234375 206.175781 C 124.507812 204.101562 121.035156 203.28125 117.699219 203.917969 C 114.539062 204.53125 111.703125 206.566406 109.914062 209.511719 Z M 109.914062 209.511719 " clip-rule="nonzero"/></clipPath></defs><g clip-path="url(#1488315593)"><path fill="#de5d4d" d="M 24.992188 140.425781 L 24.992188 228.429688 C 24.992188 235.335938 30.644531 240.984375 37.546875 240.984375 L 81.289062 240.984375 C 74.347656 231.933594 70.222656 220.609375 70.222656 208.324219 C 70.222656 178.664062 94.261719 154.625 123.921875 154.625 L 123.921875 105.269531 L 104.625 105.269531 C 100.414062 105.269531 96.515625 107.519531 94.410156 111.167969 L 84.765625 127.878906 L 37.546875 127.878906 C 30.644531 127.878906 24.992188 133.523438 24.992188 140.425781 Z M 39.707031 140.578125 C 39.707031 139.578125 40.53125 138.761719 41.527344 138.761719 L 70.054688 138.761719 C 71.054688 138.761719 71.871094 139.582031 71.871094 140.578125 L 71.871094 147.863281 C 71.871094 148.867188 71.050781 149.683594 70.054688 149.683594 L 41.53125 149.683594 C 40.53125 149.683594 39.710938 148.859375 39.710938 147.863281 L 39.710938 140.578125 Z M 39.707031 140.578125 " fill-opacity="1" fill-rule="nonzero"/></g><path fill="#de5d4d" d="M 118.628906 173.121094 C 116.976562 173.363281 115.363281 173.71875 113.789062 174.183594 C 118.160156 177.078125 121.046875 182.042969 121.046875 187.679688 C 121.046875 196.613281 113.804688 203.855469 104.867188 203.855469 C 98.863281 203.855469 93.625 200.582031 90.835938 195.722656 C 90.023438 197.941406 89.429688 200.269531 89.074219 202.671875 C 85.902344 224.476562 102.726562 243.1875 123.917969 243.1875 L 123.917969 253.414062 C 111.777344 253.414062 100.363281 248.6875 91.78125 240.101562 C 83.199219 231.519531 78.46875 220.109375 78.46875 207.964844 C 78.46875 195.824219 83.199219 184.414062 91.78125 175.828125 C 100.363281 167.246094 111.777344 162.519531 123.917969 162.519531 L 123.917969 172.746094 C 122.183594 172.734375 120.414062 172.859375 118.628906 173.121094 Z M 118.628906 173.121094 " fill-opacity="1" fill-rule="nonzero"/><g clip-path="url(#1b3e695d93)"><path fill="#de5d4d" d="M 134.003906 88.105469 L 139.03125 88.105469 L 139.03125 281.253906 L 134.003906 281.253906 Z M 134.003906 88.105469 " fill-opacity="1" fill-rule="nonzero"/></g><g clip-path="url(#4ac4426a5a)"><g clip-path="url(#13fad3a8ce)"><path fill="#de5d4d" d="M 108.265625 203.707031 L 149.886719 203.707031 L 149.886719 240.070312 L 108.265625 240.070312 Z M 108.265625 203.707031 " fill-opacity="1" fill-rule="nonzero"/></g></g><g fill="#183d4d" fill-opacity="1"><g transform="translate(151.327041, 189.954554)"><g><path d="M 31.515625 0 L 29.859375 -20.765625 L 29.640625 -20.765625 L 22.46875 -0.21875 L 17.703125 -0.21875 L 10.53125 -20.765625 L 10.3125 -20.765625 L 8.65625 0 L 0.671875 0 L 3.828125 -35.03125 L 12.3125 -35.03125 L 20.09375 -14.828125 L 27.859375 -35.03125 L 36.359375 -35.03125 L 39.5 0 Z M 31.515625 0 "/></g></g></g><g fill="#183d4d" fill-opacity="1"><g transform="translate(189.750045, 189.954554)"><g><path d="M 22.59375 -35.03125 L 22.59375 -28.03125 L 10.53125 -28.03125 L 10.53125 -21.0625 L 22.078125 -21.0625 L 22.078125 -14.0625 L 10.53125 -14.0625 L 10.53125 -7 L 22.59375 -7 L 22.59375 0 L 2.546875 0 L 2.546875 -35.03125 Z M 22.59375 -35.03125 "/></g></g></g><g fill="#183d4d" fill-opacity="1"><g transform="translate(212.633769, 189.954554)"><g><path d="M 31.515625 0 L 29.859375 -20.765625 L 29.640625 -20.765625 L 22.46875 -0.21875 L 17.703125 -0.21875 L 10.53125 -20.765625 L 10.3125 -20.765625 L 8.65625 0 L 0.671875 0 L 3.828125 -35.03125 L 12.3125 -35.03125 L 20.09375 -14.828125 L 27.859375 -35.03125 L 36.359375 -35.03125 L 39.5 0 Z M 31.515625 0 "/></g></g></g><g fill="#183d4d" fill-opacity="1"><g transform="translate(251.056778, 189.954554)"><g><path d="M 22.59375 -35.03125 L 22.59375 -28.03125 L 10.53125 -28.03125 L 10.53125 -21.0625 L 22.078125 -21.0625 L 22.078125 -14.0625 L 10.53125 -14.0625 L 10.53125 -7 L 22.59375 -7 L 22.59375 0 L 2.546875 0 L 2.546875 -35.03125 Z M 22.59375 -35.03125 "/></g></g></g><g fill="#183d4d" fill-opacity="1"><g transform="translate(273.940508, 189.954554)"><g><path d="M 10.53125 -21.75 L 10.53125 0 L 2.546875 0 L 2.546875 -35.03125 L 10.53125 -35.03125 L 24.46875 -13.296875 L 24.546875 -13.296875 L 24.546875 -35.03125 L 32.53125 -35.03125 L 32.53125 0 L 24.546875 0 L 10.625 -21.75 Z M 10.53125 -21.75 "/></g></g></g><g fill="#183d4d" fill-opacity="1"><g transform="translate(307.268666, 189.954554)"><g><path d="M 0.34375 -28.03125 L 0.34375 -35.03125 L 24.96875 -35.03125 L 24.96875 -28.03125 L 16.640625 -28.03125 L 16.640625 0 L 8.65625 0 L 8.65625 -28.03125 Z M 0.34375 -28.03125 "/></g></g></g><g fill="#183d4d" fill-opacity="1"><g transform="translate(330.831706, 189.954554)"><g><path d="M 0.984375 -17.546875 C 0.984375 -22.609375 2.707031 -26.894531 6.15625 -30.40625 C 9.613281 -33.914062 13.773438 -35.671875 18.640625 -35.671875 C 23.535156 -35.671875 27.695312 -33.921875 31.125 -30.421875 C 34.550781 -26.929688 36.265625 -22.640625 36.265625 -17.546875 C 36.265625 -12.421875 34.578125 -8.109375 31.203125 -4.609375 C 27.835938 -1.109375 23.648438 0.640625 18.640625 0.640625 C 13.515625 0.640625 9.289062 -1.09375 5.96875 -4.5625 C 2.644531 -8.03125 0.984375 -12.359375 0.984375 -17.546875 Z M 9.59375 -17.546875 C 9.59375 -15.703125 9.875 -14.019531 10.4375 -12.5 C 11.007812 -10.988281 12.003906 -9.707031 13.421875 -8.65625 C 14.835938 -7.613281 16.578125 -7.09375 18.640625 -7.09375 C 21.617188 -7.09375 23.863281 -8.109375 25.375 -10.140625 C 26.882812 -12.179688 27.640625 -14.648438 27.640625 -17.546875 C 27.640625 -20.398438 26.867188 -22.851562 25.328125 -24.90625 C 23.785156 -26.957031 21.554688 -27.984375 18.640625 -27.984375 C 15.753906 -27.984375 13.523438 -26.957031 11.953125 -24.90625 C 10.378906 -22.851562 9.59375 -20.398438 9.59375 -17.546875 Z M 9.59375 -17.546875 "/></g></g></g><g fill="#de5d4d" fill-opacity="1"><g transform="translate(164.055229, 225.802636)"><g><path d="M 7.765625 0.265625 C 6.390625 0.285156 5.195312 0.0703125 4.1875 -0.375 C 3.175781 -0.832031 2.210938 -1.507812 1.296875 -2.40625 C 1.203125 -2.476562 1.125 -2.566406 1.0625 -2.671875 C 1 -2.785156 0.96875 -2.914062 0.96875 -3.0625 C 0.96875 -3.269531 1.050781 -3.460938 1.21875 -3.640625 C 1.394531 -3.828125 1.59375 -3.921875 1.8125 -3.921875 C 2.03125 -3.921875 2.226562 -3.832031 2.40625 -3.65625 C 3.113281 -2.894531 3.910156 -2.316406 4.796875 -1.921875 C 5.691406 -1.523438 6.65625 -1.328125 7.6875 -1.328125 C 8.550781 -1.328125 9.320312 -1.460938 10 -1.734375 C 10.675781 -2.003906 11.210938 -2.390625 11.609375 -2.890625 C 12.003906 -3.398438 12.203125 -3.988281 12.203125 -4.65625 C 12.203125 -5.476562 11.972656 -6.144531 11.515625 -6.65625 C 11.066406 -7.175781 10.472656 -7.601562 9.734375 -7.9375 C 8.992188 -8.269531 8.175781 -8.570312 7.28125 -8.84375 C 6.539062 -9.0625 5.835938 -9.304688 5.171875 -9.578125 C 4.503906 -9.859375 3.90625 -10.203125 3.375 -10.609375 C 2.851562 -11.015625 2.445312 -11.515625 2.15625 -12.109375 C 1.875 -12.710938 1.734375 -13.4375 1.734375 -14.28125 C 1.734375 -15.238281 1.984375 -16.085938 2.484375 -16.828125 C 2.992188 -17.566406 3.710938 -18.144531 4.640625 -18.5625 C 5.566406 -18.988281 6.644531 -19.203125 7.875 -19.203125 C 8.9375 -19.203125 9.957031 -19.019531 10.9375 -18.65625 C 11.925781 -18.300781 12.707031 -17.769531 13.28125 -17.0625 C 13.550781 -16.78125 13.6875 -16.519531 13.6875 -16.28125 C 13.6875 -16.101562 13.59375 -15.921875 13.40625 -15.734375 C 13.226562 -15.554688 13.03125 -15.46875 12.8125 -15.46875 C 12.632812 -15.46875 12.484375 -15.53125 12.359375 -15.65625 C 12.054688 -16.039062 11.671875 -16.378906 11.203125 -16.671875 C 10.734375 -16.972656 10.210938 -17.203125 9.640625 -17.359375 C 9.078125 -17.523438 8.488281 -17.609375 7.875 -17.609375 C 7.019531 -17.609375 6.253906 -17.476562 5.578125 -17.21875 C 4.910156 -16.957031 4.378906 -16.582031 3.984375 -16.09375 C 3.597656 -15.601562 3.40625 -15.015625 3.40625 -14.328125 C 3.40625 -13.578125 3.617188 -12.957031 4.046875 -12.46875 C 4.484375 -11.976562 5.050781 -11.578125 5.75 -11.265625 C 6.457031 -10.953125 7.207031 -10.660156 8 -10.390625 C 8.78125 -10.171875 9.523438 -9.921875 10.234375 -9.640625 C 10.953125 -9.359375 11.582031 -9.007812 12.125 -8.59375 C 12.675781 -8.1875 13.109375 -7.664062 13.421875 -7.03125 C 13.742188 -6.394531 13.90625 -5.601562 13.90625 -4.65625 C 13.90625 -3.726562 13.640625 -2.894531 13.109375 -2.15625 C 12.585938 -1.425781 11.875 -0.84375 10.96875 -0.40625 C 10.0625 0.03125 8.992188 0.253906 7.765625 0.265625 Z M 7.765625 0.265625 "/></g></g></g><g fill="#de5d4d" fill-opacity="1"><g transform="translate(194.516491, 225.802636)"><g><path d="M 9.765625 -18.9375 C 10.773438 -18.9375 11.664062 -18.703125 12.4375 -18.234375 C 13.21875 -17.773438 13.832031 -17.140625 14.28125 -16.328125 C 14.726562 -15.523438 14.953125 -14.597656 14.953125 -13.546875 C 14.953125 -12.503906 14.726562 -11.5625 14.28125 -10.71875 C 13.832031 -9.882812 13.21875 -9.222656 12.4375 -8.734375 C 11.664062 -8.242188 10.773438 -8 9.765625 -8 L 4.03125 -8 L 4.171875 -8.28125 L 4.171875 -0.8125 C 4.171875 -0.59375 4.085938 -0.398438 3.921875 -0.234375 C 3.753906 -0.078125 3.566406 0 3.359375 0 C 3.097656 0 2.894531 -0.078125 2.75 -0.234375 C 2.613281 -0.398438 2.546875 -0.59375 2.546875 -0.8125 L 2.546875 -18.125 C 2.546875 -18.34375 2.625 -18.53125 2.78125 -18.6875 C 2.945312 -18.851562 3.140625 -18.9375 3.359375 -18.9375 Z M 9.765625 -9.578125 C 10.460938 -9.578125 11.070312 -9.75 11.59375 -10.09375 C 12.125 -10.445312 12.535156 -10.925781 12.828125 -11.53125 C 13.128906 -12.132812 13.28125 -12.804688 13.28125 -13.546875 C 13.28125 -14.285156 13.128906 -14.9375 12.828125 -15.5 C 12.535156 -16.070312 12.125 -16.519531 11.59375 -16.84375 C 11.070312 -17.175781 10.460938 -17.34375 9.765625 -17.34375 L 4.03125 -17.34375 L 4.171875 -17.578125 L 4.171875 -9.40625 L 4 -9.578125 Z M 9.765625 -9.578125 "/></g></g></g><g fill="#de5d4d" fill-opacity="1"><g transform="translate(225.897465, 225.802636)"><g><path d="M 8.875 -16.84375 L 2.296875 -0.515625 C 2.222656 -0.335938 2.125 -0.203125 2 -0.109375 C 1.875 -0.015625 1.726562 0.03125 1.5625 0.03125 C 1.3125 0.03125 1.125 -0.0351562 1 -0.171875 C 0.875 -0.304688 0.800781 -0.472656 0.78125 -0.671875 C 0.757812 -0.765625 0.769531 -0.875 0.8125 -1 L 7.953125 -18.46875 C 8.046875 -18.664062 8.160156 -18.804688 8.296875 -18.890625 C 8.429688 -18.972656 8.585938 -19.015625 8.765625 -19.015625 C 8.941406 -19.015625 9.097656 -18.960938 9.234375 -18.859375 C 9.367188 -18.765625 9.472656 -18.632812 9.546875 -18.46875 L 16.65625 -1.078125 C 16.695312 -0.972656 16.71875 -0.863281 16.71875 -0.75 C 16.71875 -0.5 16.632812 -0.304688 16.46875 -0.171875 C 16.3125 -0.0351562 16.125 0.03125 15.90625 0.03125 C 15.726562 0.03125 15.570312 -0.015625 15.4375 -0.109375 C 15.300781 -0.210938 15.195312 -0.347656 15.125 -0.515625 L 8.390625 -16.953125 Z M 3.875 -5.46875 L 4.546875 -7.0625 L 12.921875 -7.0625 L 13.25 -5.46875 Z M 3.875 -5.46875 "/></g></g></g><g fill="#de5d4d" fill-opacity="1"><g transform="translate(258.658031, 225.802636)"><g><path d="M 3.46875 0 C 3.195312 0 2.972656 -0.078125 2.796875 -0.234375 C 2.628906 -0.398438 2.546875 -0.59375 2.546875 -0.8125 L 2.546875 -18.125 C 2.546875 -18.34375 2.625 -18.53125 2.78125 -18.6875 C 2.945312 -18.851562 3.140625 -18.9375 3.359375 -18.9375 L 10.65625 -18.9375 C 11.6875 -18.9375 12.601562 -18.710938 13.40625 -18.265625 C 14.21875 -17.828125 14.851562 -17.21875 15.3125 -16.4375 C 15.78125 -15.664062 16.015625 -14.796875 16.015625 -13.828125 C 16.015625 -13.023438 15.867188 -12.289062 15.578125 -11.625 C 15.285156 -10.957031 14.878906 -10.394531 14.359375 -9.9375 C 13.835938 -9.476562 13.253906 -9.140625 12.609375 -8.921875 L 11.65625 -9.21875 C 12.320312 -9.164062 12.941406 -8.953125 13.515625 -8.578125 C 14.097656 -8.210938 14.5625 -7.707031 14.90625 -7.0625 C 15.257812 -6.425781 15.445312 -5.660156 15.46875 -4.765625 C 15.488281 -3.984375 15.53125 -3.375 15.59375 -2.9375 C 15.65625 -2.507812 15.75 -2.1875 15.875 -1.96875 C 16 -1.757812 16.160156 -1.585938 16.359375 -1.453125 C 16.546875 -1.347656 16.671875 -1.195312 16.734375 -1 C 16.796875 -0.800781 16.769531 -0.613281 16.65625 -0.4375 C 16.582031 -0.289062 16.476562 -0.1875 16.34375 -0.125 C 16.207031 -0.0625 16.066406 -0.03125 15.921875 -0.03125 C 15.785156 -0.03125 15.644531 -0.0664062 15.5 -0.140625 C 15.25 -0.285156 14.988281 -0.507812 14.71875 -0.8125 C 14.457031 -1.113281 14.242188 -1.5625 14.078125 -2.15625 C 13.910156 -2.757812 13.828125 -3.59375 13.828125 -4.65625 C 13.828125 -5.351562 13.710938 -5.925781 13.484375 -6.375 C 13.253906 -6.832031 12.960938 -7.179688 12.609375 -7.421875 C 12.265625 -7.671875 11.878906 -7.84375 11.453125 -7.9375 C 11.023438 -8.039062 10.625 -8.09375 10.25 -8.09375 L 3.953125 -8.09375 L 4.25 -8.46875 L 4.25 -0.8125 C 4.25 -0.59375 4.175781 -0.398438 4.03125 -0.234375 C 3.882812 -0.078125 3.695312 0 3.46875 0 Z M 3.953125 -9.578125 L 10.734375 -9.578125 C 11.347656 -9.628906 11.925781 -9.828125 12.46875 -10.171875 C 13.007812 -10.523438 13.445312 -11.007812 13.78125 -11.625 C 14.113281 -12.238281 14.28125 -12.953125 14.28125 -13.765625 C 14.28125 -14.796875 13.929688 -15.648438 13.234375 -16.328125 C 12.546875 -17.003906 11.640625 -17.34375 10.515625 -17.34375 L 4.0625 -17.34375 L 4.25 -17.71875 L 4.25 -9.203125 Z M 3.953125 -9.578125 "/></g></g></g><g fill="#de5d4d" fill-opacity="1"><g transform="translate(292.040756, 225.802636)"><g><path d="M 16.0625 0.109375 C 15.832031 0.109375 15.632812 0.0078125 15.46875 -0.1875 L 7.796875 -9.84375 L 9.0625 -11.109375 L 16.796875 -1.328125 C 16.921875 -1.148438 16.984375 -0.957031 16.984375 -0.75 C 16.984375 -0.46875 16.878906 -0.253906 16.671875 -0.109375 C 16.460938 0.0351562 16.257812 0.109375 16.0625 0.109375 Z M 15.765625 -18.875 C 15.984375 -18.875 16.164062 -18.789062 16.3125 -18.625 C 16.46875 -18.46875 16.546875 -18.289062 16.546875 -18.09375 C 16.546875 -17.875 16.46875 -17.6875 16.3125 -17.53125 L 4.03125 -6.03125 L 3.8125 -7.875 L 15.171875 -18.609375 C 15.347656 -18.785156 15.546875 -18.875 15.765625 -18.875 Z M 3.375 0 C 3.125 0 2.921875 -0.078125 2.765625 -0.234375 C 2.617188 -0.398438 2.546875 -0.601562 2.546875 -0.84375 L 2.546875 -18.09375 C 2.546875 -18.332031 2.625 -18.53125 2.78125 -18.6875 C 2.945312 -18.851562 3.15625 -18.9375 3.40625 -18.9375 C 3.644531 -18.9375 3.84375 -18.851562 4 -18.6875 C 4.164062 -18.53125 4.25 -18.332031 4.25 -18.09375 L 4.25 -0.84375 C 4.226562 -0.601562 4.132812 -0.398438 3.96875 -0.234375 C 3.8125 -0.078125 3.613281 0 3.375 0 Z M 3.375 0 "/></g></g></g></svg>