<?xml version="1.0" encoding="UTF-8"?>
<svg version="1.1" xmlns="http://www.w3.org/2000/svg" width="512" height="512">
<path d="M0 0 C1.54779854 -0.00576172 1.54779854 -0.00576172 3.12686574 -0.01163983 C4.25895141 -0.01077335 5.39103707 -0.00990687 6.55742836 -0.00901413 C8.36317674 -0.01347081 8.36317674 -0.01347081 10.20540488 -0.01801753 C13.54826384 -0.02519787 16.89107141 -0.02787685 20.2339344 -0.028615 C23.8386537 -0.03046629 27.44336186 -0.03801393 31.04807472 -0.04475021 C38.93021921 -0.05833009 46.81235861 -0.06435749 54.69451284 -0.06876087 C59.61534769 -0.07152343 64.53618057 -0.07576077 69.45701408 -0.08026505 C83.07959749 -0.09245642 96.70217932 -0.10275654 110.32476807 -0.10614014 C111.63246126 -0.10646949 111.63246126 -0.10646949 112.9665725 -0.10680549 C113.840457 -0.10702377 114.7143415 -0.10724204 115.61470735 -0.10746694 C117.38554152 -0.1079104 119.15637569 -0.10835697 120.92720985 -0.10880661 C121.80560534 -0.10902804 122.68400083 -0.10924947 123.58901437 -0.10947761 C137.82725483 -0.11342699 152.06544415 -0.13088586 166.30366485 -0.15416613 C180.91940289 -0.17787098 195.53511525 -0.19034156 210.15087283 -0.19150805 C218.35811945 -0.19242521 226.56529942 -0.19818794 234.77252769 -0.21632767 C241.75990203 -0.23171684 248.7471891 -0.23685607 255.73457716 -0.22858956 C259.29988318 -0.22467907 262.86501339 -0.22563202 266.43029785 -0.23964691 C270.29477237 -0.25469911 274.15899859 -0.24653129 278.02349281 -0.23606491 C279.15111703 -0.24412132 280.27874125 -0.25217772 281.4405359 -0.26047826 C288.89950456 -0.21308231 293.25124581 0.53526839 298.76478958 5.90397549 C301.26033947 9.64552696 301.5097717 11.32277746 301.35991859 15.77066422 C301.33098898 16.7887475 301.33098898 16.7887475 301.30147493 17.82739812 C301.21316157 20.26566035 301.07137634 22.69642758 300.91744423 25.13142776 C300.85816136 26.08257454 300.79887849 27.03372131 300.73779917 28.01369071 C300.23913933 35.64655859 299.62871746 43.26937082 299.00227356 50.89266217 C298.71945805 54.35172955 298.44412967 57.81139461 298.16779518 61.27098465 C297.62705159 68.02607035 297.07949236 74.78058645 296.52946593 81.53492197 C295.88788312 89.41628549 295.25281918 97.29817039 294.61789207 105.1800724 C293.48420609 119.25031578 292.34413168 133.32003428 291.20064735 147.38948441 C290.09332196 161.01404903 288.99135577 174.63903399 287.89498329 188.26448441 C286.69816543 203.13816162 285.49834817 218.0115912 284.29337919 232.88461047 C284.1647129 234.4727962 284.03604812 236.06098204 283.90738487 237.64916801 C283.84409176 238.43039038 283.78079865 239.21161275 283.71558756 240.01650852 C283.27157214 245.49925657 282.82961014 250.98216791 282.38841057 256.4651432 C281.85020884 263.15257364 281.30852886 269.83971204 280.76254179 276.52651151 C280.48451315 279.93252257 280.20793156 283.33863333 279.93548965 286.74509621 C279.63841414 290.44913007 279.33548174 294.15264146 279.03112221 297.85608292 C278.94745608 298.91622233 278.86378995 299.97636174 278.77758849 301.06862658 C277.51803448 316.17701209 276.46219238 328.76043038 264.68697548 339.34236526 C253.88029701 346.32326617 243.19409411 345.70165678 230.74556923 345.64900589 C228.59285446 345.65443139 226.44014341 345.66155644 224.28743935 345.67024612 C218.46100643 345.68843137 212.63485786 345.68143165 206.80842018 345.66872978 C200.70054821 345.6585773 194.5927 345.66800171 188.48482704 345.67427444 C178.22924889 345.68154428 167.9737861 345.67198048 157.71822548 345.65291214 C145.87454546 345.63114478 134.03114092 345.63819661 122.18746758 345.66021776 C112.00457978 345.67839059 101.82177474 345.68092085 91.63887596 345.67046309 C85.5632698 345.66423855 79.48779297 345.663364 73.41219521 345.67660904 C67.69930106 345.68819423 61.98676085 345.68009274 56.2739048 345.65703201 C54.1817782 345.65175922 52.08962163 345.6532341 49.9975071 345.66208267 C25.90974686 345.75454087 25.90974686 345.75454087 16.51510048 336.95955276 C9.1041809 328.47957633 6.87032297 319.2109647 6.03396034 308.28406143 C5.96298095 307.4276784 5.89200155 306.57129536 5.81887126 305.68896133 C5.58397663 302.83522048 5.35862689 299.98080902 5.13326454 297.12630081 C4.96594109 295.06945064 4.79802781 293.01264839 4.62957191 290.95589066 C4.1728653 285.35900697 3.72446458 279.76148502 3.27752209 274.16381431 C2.80200003 268.22610118 2.31884889 262.28900863 1.83657265 256.35184097 C0.91756403 245.0237801 0.0054564 233.69517436 -0.9042294 222.36636144 C-1.91549197 209.77676002 -2.93447959 197.18778818 -3.95414829 184.59886527 C-5.71427837 162.86604615 -7.46603927 141.1325658 -9.21096897 119.39852118 C-10.38976182 104.71721192 -11.5763521 90.03656985 -12.7727561 75.35668552 C-13.20497661 70.04789645 -13.63507352 64.73893502 -14.06491876 59.42995316 C-14.45247286 54.6457658 -14.84324466 49.86185709 -15.23664856 45.07814741 C-15.47180179 42.20842457 -15.70363245 39.33844073 -15.9344759 36.46836829 C-16.08819867 34.5693787 -16.24592935 32.67071483 -16.40385246 30.77206993 C-17.99829779 10.80250241 -17.99829779 10.80250241 -14.08255577 5.13142776 C-9.53792964 0.81985938 -6.11299642 0.00854847 0 0 Z M41.91744423 39.13142776 C38.43087244 42.61799956 36.03099132 46.27990419 35.83047688 51.31545067 C35.89809067 54.04639014 36.03977331 56.76438095 36.20701027 59.49104691 C36.26072904 60.50931344 36.31444781 61.52757998 36.36979443 62.57670307 C36.54095916 65.76236378 36.72807339 68.94680279 36.91744423 72.13142776 C37.02399992 74.02892891 37.13002123 75.92646015 37.23545074 77.8240242 C37.56632077 83.67636328 37.9245238 89.52690549 38.28438759 95.37752151 C38.41936999 97.59611994 38.55419694 99.81472782 38.68888283 102.03334427 C39.05044841 107.97867537 39.41472579 113.92383688 39.77998233 119.86894226 C40.00862343 123.59066565 40.23685549 127.31241393 40.46499252 131.03416824 C41.18052176 142.7034034 41.89793346 154.37252081 42.61782449 166.04148769 C42.70004033 167.37420196 42.78225407 168.70691636 42.86446571 170.03963089 C42.9052442 170.70066712 42.94602268 171.36170335 42.98803688 172.04277098 C43.6516389 182.80301805 44.30847379 193.56366721 44.96254986 204.3244971 C45.63701082 215.4189529 46.31747281 226.51302978 47.0034762 237.60677814 C47.38739491 243.81764064 47.76875194 250.0286352 48.14380646 256.24003983 C48.49567828 262.06502794 48.85493876 267.88951344 49.21990204 273.71369553 C49.35241601 275.84885768 49.48226196 277.98418735 49.60923576 280.11968613 C49.78299523 283.03515257 49.96638072 285.94986108 50.15217018 288.86458206 C50.20013565 289.70785773 50.24810113 290.5511334 50.2975201 291.41996288 C50.7072367 297.60505923 51.16170967 303.1055802 55.35494423 307.94392776 C59.22879701 311.25087526 61.80799863 312.84221386 66.91744423 313.13142776 C73.1240222 311.89011217 76.33575636 309.23261958 79.91744423 304.13142776 C81.46004121 301.04623381 81.07547115 297.81082983 81.05927467 294.42659378 C81.05676057 293.62818604 81.05424647 292.82977831 81.05165619 292.0071764 C80.96461755 281.78830894 80.2943985 271.60443872 79.64815712 261.40877151 C79.5113816 259.18594569 79.3750889 256.96309012 79.23923683 254.74020767 C78.87229544 248.7590695 78.49853817 242.77837552 78.1233685 236.79774857 C77.73035208 230.51532804 77.34337902 224.23253499 76.95563698 217.94978714 C76.30444537 207.41228225 75.64914087 196.87503901 74.99093056 186.33797073 C74.31514874 175.5195059 73.64278033 164.70083634 72.97432899 153.88191605 C72.93307646 153.2142511 72.89182392 152.54658616 72.84932131 151.85868895 C72.76620502 150.51343138 72.68308881 149.1681738 72.59997269 147.82291621 C72.55896125 147.15914778 72.51794982 146.49537936 72.47569561 145.81149673 C72.43478149 145.14928724 72.39386737 144.48707774 72.35171342 143.80480129 C71.67325896 132.82595788 70.99147955 121.84732064 70.30958438 110.86869049 C70.07803883 107.13848966 69.84694529 103.40826102 69.61591721 99.67802811 C69.25253354 93.81401863 68.88712647 87.95013848 68.52017212 82.08635139 C68.38609947 79.93942562 68.25265796 77.79246031 68.11990547 75.6454525 C67.93809863 72.70707054 67.75393991 69.76884488 67.56919289 66.83064651 C67.51763245 65.98880782 67.46607202 65.14696913 67.41294914 64.27962017 C67.26160318 61.89564398 67.09489175 59.51359888 66.91744423 57.13142776 C66.85240098 56.23944687 66.78735773 55.34746597 66.72034347 54.42845535 C66.64561628 53.5412883 66.57088909 52.65412125 66.49389744 51.74007034 C66.42871888 50.93934601 66.36354032 50.13862167 66.29638666 49.31363297 C65.49271779 44.68556745 62.3659735 41.14992461 58.91744423 38.13142776 C52.85985886 35.57457714 47.54713644 35.69744317 41.91744423 39.13142776 Z M132.16744423 40.31892776 C127.00190791 46.77584817 126.47975211 52.37787096 126.5364933 60.37910843 C126.53181333 61.39695498 126.52713336 62.41480153 126.52231157 63.46349192 C126.51036667 66.86660915 126.51981709 70.26932332 126.52926064 73.67244339 C126.52519473 76.11529144 126.51985274 78.55813765 126.51333046 81.00098038 C126.50107336 86.94274005 126.50286415 92.88439544 126.51156838 98.82615221 C126.51835044 103.65621713 126.5192594 108.48625019 126.51599693 113.31631851 C126.51553723 114.00441397 126.51507753 114.69250943 126.51460391 115.40145627 C126.51364471 116.79941842 126.51267206 118.19738056 126.51168613 119.5953427 C126.50313663 132.6963379 126.51295945 145.79727007 126.52908723 158.89825493 C126.54249003 170.13340009 126.54016181 181.36845225 126.52633095 192.60359573 C126.51026735 205.65851099 126.50396056 218.71337105 126.51316774 231.76829481 C126.51412336 233.1610422 126.51506647 234.55378961 126.51599693 235.94653702 C126.51645976 236.63175058 126.51692259 237.31696413 126.51739944 238.02294174 C126.51998699 242.84580447 126.5156234 247.66863211 126.50855827 252.49148941 C126.49925373 258.98563229 126.50590202 265.47964094 126.52324104 271.97376823 C126.52720842 274.35741573 126.52606758 276.741078 126.51945305 279.12471962 C126.5112577 282.37792848 126.52153549 285.63057414 126.5364933 288.8837471 C126.52980114 289.8274285 126.52310897 290.7711099 126.51621401 291.7433877 C126.57906742 298.78925906 127.65722163 303.59556827 132.47994423 309.00642776 C136.45439937 312.47133737 139.23898933 312.4754207 144.37838173 312.40877151 C149.32911708 311.86799888 151.93197327 309.28720449 155.04976082 305.63061142 C157.5791614 300.89167274 157.47402238 297.06088548 157.4253788 291.76948929 C157.43161876 290.72729028 157.43785872 289.68509128 157.44428778 288.61131048 C157.46024009 285.11973911 157.4476042 281.62886367 157.43502235 278.13728714 C157.44044245 275.63384977 157.44756447 273.13041559 157.45626259 270.62698746 C157.47261678 264.53363392 157.47021183 258.44055342 157.45861202 252.34721053 C157.44957451 247.39458514 157.44835507 242.44201497 157.45270729 237.4893837 C157.45332022 236.78421186 157.45393315 236.07904002 157.45456466 235.35249934 C157.45584358 233.91990791 157.45714043 232.4873165 157.45845503 231.05472511 C157.46985827 217.62469052 157.45675117 204.19476518 157.43525356 190.76474851 C157.41738278 179.24385382 157.42048696 167.72312034 157.4389286 156.20222855 C157.46033987 142.81990546 157.46875966 129.43767811 157.45647955 116.05534029 C157.45520537 114.62805082 157.45394788 113.20076133 157.45270729 111.77347183 C157.45178164 110.72012095 157.45178164 110.72012095 157.45083728 109.64549026 C157.44738514 104.69942906 157.45320978 99.75342864 157.4626255 94.80737686 C157.47502235 88.14905493 157.46618267 81.49099041 157.44304848 74.83268166 C157.43775417 72.38733998 157.43928742 69.94197269 157.44809914 67.49664116 C157.45900907 64.16186852 157.44534472 60.82807621 157.4253788 57.49336624 C157.43430169 56.52274419 157.44322457 55.55212214 157.45241785 54.55208731 C157.38659607 48.89490401 156.71427287 45.61027571 152.91744423 41.13142776 C146.53475112 34.91670026 139.20377867 34.72184355 132.16744423 40.31892776 Z M223.91744423 39.13142776 C219.34579147 43.58585866 217.74558039 48.4369103 217.37423134 54.70662308 C217.30299049 55.83994064 217.23174965 56.97325821 217.15834999 58.14091873 C217.08787453 59.40106796 217.01739906 60.66121719 216.94478798 61.95955276 C216.86088542 63.34876631 216.77624247 64.73793529 216.69094276 66.12706375 C216.45292086 70.04099957 216.2258107 73.95550719 216.00044823 77.87018967 C215.75285872 82.14331072 215.49627967 86.41589358 215.24093056 90.68855667 C214.82347342 97.6929197 214.41054482 104.6975353 214.00091267 111.70236015 C213.18383519 125.67036736 212.3488237 139.6372392 211.5083704 153.60385513 C210.68140077 167.34719925 209.85902 181.09081321 209.03992748 194.83462906 C208.93604406 196.57756447 208.83215682 198.32049965 208.72826576 200.0634346 C208.65118174 201.35672463 208.65118174 201.35672463 208.57254046 202.67614174 C208.20991832 208.75628273 207.8448638 214.8362749 207.47893715 220.9162178 C207.02545932 228.45259945 206.57629085 235.98922505 206.13207877 243.52615869 C205.90154249 247.43587739 205.66922203 251.34546757 205.43194771 255.25478363 C204.22164298 274.75879453 204.22164298 274.75879453 203.55538368 294.28621292 C203.52860888 295.01826132 203.50183409 295.75030972 203.47424793 296.5045414 C203.4484226 301.50645378 204.86405883 304.24089947 207.91744423 308.13142776 C208.53619423 308.99767776 208.53619423 308.99767776 209.16744423 309.88142776 C213.38581669 312.89455095 217.66535465 313.32242448 222.60494423 312.56892776 C227.46538179 310.45968128 230.01814936 307.48037007 232.91744423 303.13142776 C234.23313417 298.41815727 234.29026694 293.48200963 234.56919289 288.6201973 C234.62721704 287.65729562 234.6852412 286.69439394 234.74502367 285.70231342 C234.93873672 282.4731458 235.12742444 279.24370434 235.31612587 276.01424026 C235.45391212 273.6996325 235.59199621 271.38504244 235.73035622 269.0704689 C236.10549389 262.77896331 236.47616712 256.48720198 236.84584546 250.19537354 C237.19419061 244.274843 237.5453133 238.35447759 237.89623099 232.43409908 C238.63403847 219.98363619 239.36749134 207.53291967 240.09948992 195.0821141 C240.72646661 184.4194692 241.35729425 173.75705781 241.99093056 163.09480667 C242.72748501 150.70072515 243.46151296 138.30649806 244.19165319 125.9120369 C244.57790984 119.35610287 244.96521323 112.80023525 245.35526657 106.24452591 C245.72234103 100.07238485 246.08564622 93.90003294 246.4461174 87.72750282 C246.57862993 85.4688502 246.71242856 83.21027258 246.84764671 80.95178032 C249.63799161 60.70103765 249.63799161 60.70103765 244.91744423 42.13142776 C238.49434395 35.70832749 231.75328771 35.04646285 223.91744423 39.13142776 Z " fill="#000000" transform="translate(114.08255577087402,166.86857223510742)"/>
<path d="M0 0 C1.22022801 -0.00445784 2.44045601 -0.00891569 3.69766062 -0.01350862 C5.05890955 -0.01341932 6.42015846 -0.01322946 7.78140736 -0.01294994 C9.22197612 -0.01624861 10.66254396 -0.01997418 12.10311061 -0.02409142 C16.07143989 -0.03411925 20.03975404 -0.03782947 24.00809419 -0.04048073 C28.28431459 -0.04438146 32.56052298 -0.05395996 36.83673573 -0.0626936 C47.16857324 -0.08246448 57.50041174 -0.09252498 67.83226344 -0.10142139 C72.69615936 -0.10580324 77.56005419 -0.11117031 82.42394924 -0.11641026 C98.58997052 -0.13342311 114.75599111 -0.1479177 130.92201996 -0.155159 C135.11805376 -0.15706893 139.31408756 -0.15898926 143.51012135 -0.16094494 C145.07450162 -0.16167055 145.07450162 -0.16167055 146.67048553 -0.16241082 C163.56842433 -0.17071267 180.46629237 -0.19605197 197.36420026 -0.22852562 C214.70776562 -0.26158434 232.051295 -0.27960668 249.39489204 -0.28280324 C259.13477452 -0.28496943 268.87455383 -0.29373402 278.61440563 -0.31926441 C286.90866439 -0.34095518 295.2027949 -0.34902983 303.4970788 -0.33929763 C307.72897284 -0.33474822 311.9606022 -0.33667625 316.19246006 -0.35605907 C320.06831262 -0.37365799 323.94370676 -0.37271991 327.81956396 -0.35716178 C329.22001669 -0.35478071 330.62050089 -0.35913522 332.02090546 -0.37099043 C341.46137424 -0.44594458 347.97933366 0.02317908 354.99034595 6.87299061 C357.49499633 10.59127464 358.94725032 14.07983272 360.3355608 18.31390858 C360.59721027 19.08550312 360.85885975 19.85709766 361.128438 20.65207386 C361.67442247 22.27522274 362.21358307 23.90068153 362.74620533 25.52826405 C363.55994203 28.00258852 364.40514373 30.46456208 365.25352955 32.92718983 C365.78280853 34.51378514 366.31021567 36.10100637 366.8355608 37.68890858 C367.08752216 38.41625202 367.33948353 39.14359547 367.59908009 39.89297962 C369.25234513 45.06087182 369.29693826 48.80326021 368.1871233 54.13422108 C365.96594939 57.65746245 364.04617123 59.62990559 360.1871233 61.13422108 C357.24783814 61.38722074 357.24783814 61.38722074 353.74585629 61.39148998 C353.09807974 61.39499606 352.45030319 61.39850213 351.78289706 61.40211445 C349.60327404 61.41144907 347.423917 61.40649993 345.24428272 61.40164661 C343.6694307 61.40538184 342.09458053 61.40998285 340.51973331 61.41537726 C336.18493201 61.42763844 331.85020771 61.42734314 327.51539302 61.42498851 C322.84317278 61.42458113 318.17097749 61.4356119 313.49876881 61.44510365 C304.34248698 61.46173148 295.18623091 61.46721399 286.02993526 61.4683284 C278.58919272 61.46927799 271.14845869 61.47338382 263.70771885 61.47972965 C242.62280525 61.4973466 221.53791203 61.50656776 200.45299102 61.5050687 C199.31579667 61.50498879 198.17860231 61.50490888 197.00694752 61.50482655 C195.86836854 61.50474478 194.72978957 61.50466302 193.5567082 61.50457878 C175.09904781 61.50376566 156.64146898 61.52290882 138.18383218 61.55110328 C119.24240289 61.57980901 100.30101341 61.59364486 81.3595618 61.59191573 C70.72103455 61.59125105 60.08259281 61.59677753 49.44408512 61.61827183 C40.3870916 61.6364532 31.33022236 61.64085604 22.27321853 61.62725298 C17.65070216 61.62070803 13.02842441 61.62066101 8.40593052 61.63795948 C4.17556276 61.65362796 -0.05437594 61.65089073 -4.28473283 61.63339122 C-5.8163403 61.63030754 -7.3479793 61.63400495 -8.87954961 61.64511137 C-10.96019658 61.65920201 -13.03933214 61.64867288 -15.11992741 61.63199902 C-16.85389548 61.63265112 -16.85389548 61.63265112 -18.62289321 61.6333164 C-22.53659472 61.02099031 -24.72055792 59.56200997 -27.8128767 57.13422108 C-30.76581037 52.78083881 -30.459312 48.19424912 -29.8128767 43.13422108 C-28.55529234 38.34330349 -27.00273729 33.69860381 -25.33289623 29.03754139 C-24.5615404 26.88048418 -23.81647009 24.71563483 -23.07459545 22.54828358 C-22.58783045 21.15452394 -22.09959918 19.76127534 -21.6097517 18.36859608 C-21.38978527 17.7309734 -21.16981884 17.09335072 -20.94318676 16.43640614 C-18.4069785 9.42565662 -15.31471434 4.86931929 -8.8128767 1.13422108 C-5.62212154 0.07063602 -3.35347837 0.00567051 0 0 Z " fill="#000000" transform="translate(86.81287670135498,75.86577892303467)"/>
<path d="M0 0 C0.86474442 -0.0071553 1.72948883 -0.01431061 2.62043762 -0.02168274 C3.56641815 -0.02437164 4.51239868 -0.02706055 5.48704529 -0.02983093 C6.48579178 -0.03640213 7.48453827 -0.04297333 8.5135498 -0.04974365 C11.82559788 -0.06948543 15.13760053 -0.08114328 18.44969177 -0.09111023 C19.58184553 -0.09518576 20.71399929 -0.09926128 21.88046074 -0.10346031 C27.87659905 -0.12432807 33.87271445 -0.1386249 39.86888123 -0.147995 C46.05030383 -0.15904103 52.23136464 -0.19341844 58.41265965 -0.23316669 C63.17491302 -0.25937008 67.93708083 -0.26769033 72.69939995 -0.27127647 C74.97705965 -0.27613535 77.25471571 -0.28772926 79.53230476 -0.30631447 C82.729745 -0.33077695 85.92625801 -0.32972721 89.12376404 -0.32279968 C90.05557495 -0.33560974 90.98738586 -0.3484198 91.94743347 -0.36161804 C100.1998358 -0.29683086 107.44917829 1.75044754 113.63328552 7.39717102 C118.92457411 13.18763778 121.89742937 19.84898313 121.85594177 27.69013977 C121.85344421 28.65717834 121.85094666 29.62421692 121.84837341 30.62055969 C121.83926941 31.84621643 121.83016541 33.07187317 121.82078552 34.33467102 C121.80016052 38.23279602 121.77953552 42.13092102 121.75828552 46.14717102 C111.19828552 46.14717102 100.63828552 46.14717102 89.75828552 46.14717102 C89.75828552 41.19717102 89.75828552 36.24717102 89.75828552 31.14717102 C62.03828552 31.14717102 34.31828552 31.14717102 5.75828552 31.14717102 C5.75828552 36.09717102 5.75828552 41.04717102 5.75828552 46.14717102 C-4.80171448 46.14717102 -15.36171448 46.14717102 -26.24171448 46.14717102 C-26.32421448 42.55842102 -26.40671448 38.96967102 -26.49171448 35.27217102 C-26.52813049 34.16244934 -26.56454651 33.05272766 -26.60206604 31.90937805 C-26.70406458 22.6291563 -24.43335572 14.59966272 -18.02296448 7.68232727 C-12.9298624 3.29287746 -6.78164154 0.03858102 0 0 Z " fill="#000000" transform="translate(208.24171447753906,-0.1471710205078125)"/>
</svg>
