<svg version="1.1" id="Layer_1" xmlns="http://www.w3.org/2000/svg" xmlns:xlink="http://www.w3.org/1999/xlink" x="0px" y="0px"
	 width="100%" viewBox="0 0 512 512" enable-background="new 0 0 512 512" xml:space="preserve">
<path fill="#FFFFFF" opacity="1.000000" stroke="none" 
	d="
M147.000000,513.000000 
	C98.358040,513.000000 49.716084,513.000000 1.037063,513.000000 
	C1.037063,342.444702 1.037063,171.889389 1.037063,1.000000 
	C68.687195,1.000000 136.374939,1.000000 204.419479,1.364891 
	C198.312439,3.382946 193.082214,6.760662 188.944138,12.115278 
	C180.687866,22.798779 183.479309,35.016209 183.030334,46.649769 
	C194.106766,46.649769 204.515472,46.649769 215.309998,46.649769 
	C215.309998,41.554226 215.309998,36.808472 215.309998,32.353943 
	C243.447800,32.353943 271.185638,32.353943 299.317505,32.353943 
	C299.317505,37.453983 299.317505,42.200726 299.317505,46.639057 
	C310.126709,46.639057 320.534973,46.639057 331.000000,46.639057 
	C331.000000,40.114304 331.541595,33.886417 330.824005,27.807167 
	C330.276764,23.171085 328.676880,18.451727 326.578430,14.252598 
	C323.005890,7.103692 316.343323,3.460687 309.000000,1.000000 
	C376.965485,1.000000 444.931000,1.000000 512.948242,1.000000 
	C512.948242,171.545517 512.948242,342.091064 512.948242,513.000000 
	C464.646393,513.000000 416.291840,513.000000 367.585876,512.630493 
	C375.199829,510.842102 381.083099,506.233582 385.998749,500.092194 
	C391.707214,492.960358 391.926941,484.189758 392.890137,475.801361 
	C394.310425,463.432281 394.993896,450.978760 396.000549,438.561951 
	C396.993774,426.310669 398.014374,414.061615 398.994171,401.809296 
	C400.013733,389.060150 400.983887,376.307098 402.003479,363.557953 
	C402.983337,351.305634 404.003571,339.056580 404.997406,326.805359 
	C406.335907,310.304932 407.735718,293.809021 408.974915,277.301117 
	C409.774841,266.644745 410.319641,255.969391 411.007996,245.304428 
	C411.303955,240.718430 411.637268,236.134171 412.016876,231.554367 
	C413.329559,215.718018 414.994507,199.902222 415.886322,184.042664 
	C416.484039,173.412857 410.526184,168.000732 399.674500,168.000610 
	C304.875488,167.999573 210.076477,168.000000 115.277473,168.000000 
	C114.611046,168.000000 113.942719,167.966888 113.278488,168.005035 
	C103.375534,168.573944 97.714027,174.028961 98.079010,183.715820 
	C98.337059,190.564743 99.402405,197.379913 99.983307,204.220703 
	C101.037376,216.633469 101.993980,229.054489 103.000656,241.471298 
	C103.993912,253.722565 105.003899,265.972473 105.997154,278.223755 
	C107.003838,290.640564 107.993996,303.058685 109.000656,315.475494 
	C109.993919,327.726929 111.013664,339.976166 111.994965,352.228546 
	C113.343140,369.061554 114.650566,385.897827 116.005043,402.730316 
	C116.977600,414.816620 118.066719,426.893829 118.980255,438.984467 
	C120.056496,453.228485 120.794807,467.500946 122.070084,481.726044 
	C122.959274,491.644653 126.214203,500.681152 135.057434,506.470490 
	C138.841385,508.947754 143.007523,510.841248 147.000000,513.000000 
M319.500000,138.000000 
	C339.492920,138.000000 359.485840,138.000000 379.478760,138.000000 
	C400.971222,138.000000 422.463745,138.019516 443.956177,137.990494 
	C452.681274,137.978714 458.470123,130.672607 456.038239,122.392242 
	C452.786682,111.320877 449.418121,100.272377 445.664429,89.363892 
	C443.003998,81.632492 435.507629,77.001396 427.041840,77.001259 
	C313.581573,76.999382 200.121277,76.979912 86.661049,77.045769 
	C79.193901,77.050102 72.854919,79.825401 70.027145,87.331978 
	C65.854622,98.408310 61.396133,109.445984 58.303055,120.837791 
	C55.879505,129.763748 60.214020,138.084061 71.586563,138.066849 
	C153.890884,137.942291 236.195480,138.000000 319.500000,138.000000 
z"/>
<path fill="#000000" opacity="1.000000" stroke="none" 
	d="
M147.468658,513.000000 
	C143.007523,510.841248 138.841385,508.947754 135.057434,506.470490 
	C126.214203,500.681152 122.959274,491.644653 122.070084,481.726044 
	C120.794807,467.500946 120.056496,453.228485 118.980255,438.984467 
	C118.066719,426.893829 116.977600,414.816620 116.005043,402.730316 
	C114.650566,385.897827 113.343140,369.061554 111.994965,352.228546 
	C111.013664,339.976166 109.993919,327.726929 109.000656,315.475494 
	C107.993996,303.058685 107.003838,290.640564 105.997154,278.223755 
	C105.003899,265.972473 103.993912,253.722565 103.000656,241.471298 
	C101.993980,229.054489 101.037376,216.633469 99.983307,204.220703 
	C99.402405,197.379913 98.337059,190.564743 98.079010,183.715820 
	C97.714027,174.028961 103.375534,168.573944 113.278488,168.005035 
	C113.942719,167.966888 114.611046,168.000000 115.277473,168.000000 
	C210.076477,168.000000 304.875488,167.999573 399.674500,168.000610 
	C410.526184,168.000732 416.484039,173.412857 415.886322,184.042664 
	C414.994507,199.902222 413.329559,215.718018 412.016876,231.554367 
	C411.637268,236.134171 411.303955,240.718430 411.007996,245.304428 
	C410.319641,255.969391 409.774841,266.644745 408.974915,277.301117 
	C407.735718,293.809021 406.335907,310.304932 404.997406,326.805359 
	C404.003571,339.056580 402.983337,351.305634 402.003479,363.557953 
	C400.983887,376.307098 400.013733,389.060150 398.994171,401.809296 
	C398.014374,414.061615 396.993774,426.310669 396.000549,438.561951 
	C394.993896,450.978760 394.310425,463.432281 392.890137,475.801361 
	C391.926941,484.189758 391.707214,492.960358 385.998749,500.092194 
	C381.083099,506.233582 375.199829,510.842102 367.117188,512.630493 
	C293.979095,513.000000 220.958206,513.000000 147.468658,513.000000 
M242.000000,453.489166 
	C242.336990,458.887177 241.793777,464.532349 243.223267,469.623627 
	C245.222763,476.744965 250.283493,481.259125 260.088989,479.942078 
	C266.394897,479.095032 272.051208,472.290070 272.046356,466.420776 
	C271.978180,383.756561 272.013092,301.092285 271.972107,218.428024 
	C271.969238,212.586777 268.423584,208.540405 263.674866,206.063965 
	C259.174225,203.716858 254.231369,203.893082 249.705109,206.807648 
	C243.785034,210.619720 241.997986,216.373749 241.998230,222.999588 
	C242.001038,299.497375 242.000000,375.995148 242.000000,453.489166 
M182.508942,241.005432 
	C182.005966,233.631104 181.367935,226.262756 181.041946,218.880615 
	C180.772156,212.771057 175.790115,206.278763 170.003204,205.022018 
	C163.002045,203.501572 156.262253,206.419571 153.299759,212.249802 
	C151.091034,216.596680 151.305695,220.933868 151.768158,225.821213 
	C153.364029,242.685822 153.976624,259.642700 155.008392,276.561707 
	C155.628723,286.734192 156.362228,296.899750 156.991379,307.071716 
	C158.017258,323.657776 158.984436,340.247406 160.005478,356.833771 
	C160.641876,367.171906 161.404373,377.502686 161.981812,387.843964 
	C163.038116,406.761383 163.926224,425.688446 165.035583,444.602631 
	C165.485291,452.269806 166.398239,459.908722 166.976532,467.569824 
	C167.525803,474.846802 174.033020,481.141022 183.484207,480.067139 
	C190.459091,479.274567 196.111588,473.025116 195.956314,465.145203 
	C195.856033,460.055725 195.312698,454.975861 195.005722,449.889404 
	C193.994568,433.135803 193.017868,416.380066 191.993713,399.627289 
	C191.361694,389.288849 190.643021,378.955750 190.006592,368.617584 
	C188.985519,352.031250 188.008545,335.442200 186.997192,318.855255 
	C186.346573,308.184662 185.572540,297.520691 185.024506,286.844971 
	C184.254639,271.847717 183.643280,256.842316 182.508942,241.005432 
M349.793854,204.970581 
	C339.876587,204.092590 334.403473,209.459686 333.140503,219.285217 
	C331.843536,229.375061 331.641449,239.607346 331.007080,249.780197 
	C330.310608,260.949432 329.656281,272.121368 329.004364,283.293365 
	C328.323395,294.963654 327.681610,306.636292 326.995880,318.306305 
	C326.349121,329.311951 325.656036,340.314819 325.004364,351.320160 
	C324.323212,362.823792 323.674347,374.329315 322.997986,385.833221 
	C322.341187,397.004913 321.571777,408.170898 321.024323,419.347870 
	C320.265137,434.847687 319.550018,450.351624 319.050354,465.861359 
	C318.807648,473.393463 325.247101,480.212860 333.110992,480.427124 
	C339.865601,480.611176 346.883301,476.676514 347.971588,467.878296 
	C348.792450,461.241913 349.535309,454.583649 349.958954,447.912659 
	C351.075562,430.330048 351.978821,412.733948 353.007629,395.145599 
	C353.631958,384.471985 354.372589,373.805176 354.988556,363.131134 
	C356.022736,345.209747 357.051392,327.287689 357.977875,309.360565 
	C358.438477,300.448364 358.626190,291.522369 359.014832,282.606018 
	C359.272980,276.683807 359.625000,270.764771 360.010834,264.849274 
	C360.984375,249.924484 362.195801,235.011963 362.920990,220.075546 
	C363.306702,212.131317 358.726929,206.992157 349.793854,204.970581 
z"/>
<path fill="#000000" opacity="1.000000" stroke="none" 
	d="
M308.531342,1.000000 
	C316.343323,3.460687 323.005890,7.103692 326.578430,14.252598 
	C328.676880,18.451727 330.276764,23.171085 330.824005,27.807167 
	C331.541595,33.886417 331.000000,40.114304 331.000000,46.639057 
	C320.534973,46.639057 310.126709,46.639057 299.317505,46.639057 
	C299.317505,42.200726 299.317505,37.453983 299.317505,32.353943 
	C271.185638,32.353943 243.447800,32.353943 215.309998,32.353943 
	C215.309998,36.808472 215.309998,41.554226 215.309998,46.649769 
	C204.515472,46.649769 194.106766,46.649769 183.030334,46.649769 
	C183.479309,35.016209 180.687866,22.798779 188.944138,12.115278 
	C193.082214,6.760662 198.312439,3.382946 204.888138,1.364891 
	C239.354233,1.000000 273.708466,1.000000 308.531342,1.000000 
z"/>
<path fill="#000000" opacity="1.000000" stroke="none" 
	d="
M319.000000,138.000000 
	C236.195480,138.000000 153.890884,137.942291 71.586563,138.066849 
	C60.214020,138.084061 55.879505,129.763748 58.303055,120.837791 
	C61.396133,109.445984 65.854622,98.408310 70.027145,87.331978 
	C72.854919,79.825401 79.193901,77.050102 86.661049,77.045769 
	C200.121277,76.979912 313.581573,76.999382 427.041840,77.001259 
	C435.507629,77.001396 443.003998,81.632492 445.664429,89.363892 
	C449.418121,100.272377 452.786682,111.320877 456.038239,122.392242 
	C458.470123,130.672607 452.681274,137.978714 443.956177,137.990494 
	C422.463745,138.019516 400.971222,138.000000 379.478760,138.000000 
	C359.485840,138.000000 339.492920,138.000000 319.000000,138.000000 
z"/>
<path fill="#FFFFFF" opacity="1.000000" stroke="none" 
	d="
M242.000000,452.991028 
	C242.000000,375.995148 242.001038,299.497375 241.998230,222.999588 
	C241.997986,216.373749 243.785034,210.619720 249.705109,206.807648 
	C254.231369,203.893082 259.174225,203.716858 263.674866,206.063965 
	C268.423584,208.540405 271.969238,212.586777 271.972107,218.428024 
	C272.013092,301.092285 271.978180,383.756561 272.046356,466.420776 
	C272.051208,472.290070 266.394897,479.095032 260.088989,479.942078 
	C250.283493,481.259125 245.222763,476.744965 243.223267,469.623627 
	C241.793777,464.532349 242.336990,458.887177 242.000000,452.991028 
z"/>
<path fill="#FFFFFF" opacity="1.000000" stroke="none" 
	d="
M182.736526,241.422913 
	C183.643280,256.842316 184.254639,271.847717 185.024506,286.844971 
	C185.572540,297.520691 186.346573,308.184662 186.997192,318.855255 
	C188.008545,335.442200 188.985519,352.031250 190.006592,368.617584 
	C190.643021,378.955750 191.361694,389.288849 191.993713,399.627289 
	C193.017868,416.380066 193.994568,433.135803 195.005722,449.889404 
	C195.312698,454.975861 195.856033,460.055725 195.956314,465.145203 
	C196.111588,473.025116 190.459091,479.274567 183.484207,480.067139 
	C174.033020,481.141022 167.525803,474.846802 166.976532,467.569824 
	C166.398239,459.908722 165.485291,452.269806 165.035583,444.602631 
	C163.926224,425.688446 163.038116,406.761383 161.981812,387.843964 
	C161.404373,377.502686 160.641876,367.171906 160.005478,356.833771 
	C158.984436,340.247406 158.017258,323.657776 156.991379,307.071716 
	C156.362228,296.899750 155.628723,286.734192 155.008392,276.561707 
	C153.976624,259.642700 153.364029,242.685822 151.768158,225.821213 
	C151.305695,220.933868 151.091034,216.596680 153.299759,212.249802 
	C156.262253,206.419571 163.002045,203.501572 170.003204,205.022018 
	C175.790115,206.278763 180.772156,212.771057 181.041946,218.880615 
	C181.367935,226.262756 182.005966,233.631104 182.736526,241.422913 
z"/>
<path fill="#FFFFFF" opacity="1.000000" stroke="none" 
	d="
M350.193542,204.984253 
	C358.726929,206.992157 363.306702,212.131317 362.920990,220.075546 
	C362.195801,235.011963 360.984375,249.924484 360.010834,264.849274 
	C359.625000,270.764771 359.272980,276.683807 359.014832,282.606018 
	C358.626190,291.522369 358.438477,300.448364 357.977875,309.360565 
	C357.051392,327.287689 356.022736,345.209747 354.988556,363.131134 
	C354.372589,373.805176 353.631958,384.471985 353.007629,395.145599 
	C351.978821,412.733948 351.075562,430.330048 349.958954,447.912659 
	C349.535309,454.583649 348.792450,461.241913 347.971588,467.878296 
	C346.883301,476.676514 339.865601,480.611176 333.110992,480.427124 
	C325.247101,480.212860 318.807648,473.393463 319.050354,465.861359 
	C319.550018,450.351624 320.265137,434.847687 321.024323,419.347870 
	C321.571777,408.170898 322.341187,397.004913 322.997986,385.833221 
	C323.674347,374.329315 324.323212,362.823792 325.004364,351.320160 
	C325.656036,340.314819 326.349121,329.311951 326.995880,318.306305 
	C327.681610,306.636292 328.323395,294.963654 329.004364,283.293365 
	C329.656281,272.121368 330.310608,260.949432 331.007080,249.780197 
	C331.641449,239.607346 331.843536,229.375061 333.140503,219.285217 
	C334.403473,209.459686 339.876587,204.092590 350.193542,204.984253 
z"/>
</svg>